#!OML:ASF F:\twosubjects\two\Thursday\Session 1\justin.ASF
:FULLY-SPECIFIED
:DEGREES
464
root 9.42549 17.2977 -19.781 -2.919 -77.6138 10.3612
lowerback -2.47792 2.52223 -2.3179
upperback -2.913 3.37267 1.58649
thorax -1.83614 1.73601 2.94971
lowerneck -17.5285 12.7533 2.60183
upperneck 19.962 18.3947 -5.86523
head 10.0293 8.01227 0.159081
rclavicle -2.4581e-014 3.97569e-015
rhumerus -36.6437 -17.9878 -75.1706
rradius 28.417
rwrist -4.07519
rhand -16.7977 9.00443
rfingers 7.12502
rthumb 9.43057 -20.7646
lclavicle -2.4581e-014 3.97569e-015
lhumerus -31.4539 4.21017 86.827
lradius 29.4374
lwrist -12.3821
lhand 0.279046 40.8012
lfingers 7.12502
lthumb 25.8576 69.0633
rfemur -13.9611 -2.39182 23.3747
rtibia 37.685
rfoot -28.162 -15.7402
rtoes -7.6751
lfemur -14.5329 4.21126 -22.0463
ltibia 29.9124
lfoot -21.051 -12.72
ltoes 2.53536
465
root 9.42769 17.3008 -19.7807 -2.7974 -77.4076 10.188
lowerback -2.43899 2.60309 -2.29821
upperback -2.88024 3.48054 1.58549
thorax -1.83037 1.78947 2.93669
lowerneck -17.3854 12.9338 2.50672
upperneck 19.8191 18.6148 -5.68427
head 9.93137 8.14299 0.249264
rclavicle -5.38893e-015 -1.51076e-014
rhumerus -36.6948 -18.016 -75.0366
rradius 28.5292
rwrist -4.19376
rhand -16.5163 8.89243
rfingers 7.12502
rthumb 9.70205 -20.8641
lclavicle -5.38893e-015 -1.51076e-014
lhumerus -31.4213 4.21591 86.9359
lradius 29.5304
lwrist -12.4967
lhand 0.906948 41.0483
lfingers 7.12502
lthumb 26.4588 69.2213
rfemur -13.9235 -2.39179 23.3954
rtibia 37.6838
rfoot -28.3097 -15.7981
rtoes -6.78537
lfemur -14.5158 4.10804 -22.0241
ltibia 29.9305
lfoot -21.0332 -12.6009
ltoes 2.42895
466
root 9.43157 17.303 -19.7812 -2.63757 -77.1923 9.97449
lowerback -2.30261 2.66461 -2.21578
upperback -2.90164 3.55955 1.53919
thorax -1.92588 1.82846 2.83536
lowerneck -17.3848 13.0419 2.45311
upperneck 19.9651 18.7389 -5.45151
head 9.9561 8.21775 0.354911
rclavicle 9.92681e-015 -7.95139e-016
rhumerus -36.8276 -17.8074 -75.1129
rradius 28.6288
rwrist -4.49434
rhand -16.2593 9.02228
rfingers 7.12502
rthumb 9.94999 -20.7226
lclavicle 9.92681e-015 -7.95139e-016
lhumerus -31.4954 3.90929 87.0513
lradius 29.7822
lwrist -12.2052
lhand 1.37562 41.0829
lfingers 7.12502
lthumb 26.9073 69.1876
rfemur -13.8655 -2.38513 23.4367
rtibia 37.7002
rfoot -28.3881 -15.8925
rtoes -6.22972
lfemur -14.4939 3.99158 -21.973
ltibia 29.9287
lfoot -20.953 -12.5597
ltoes 2.68636
467
root 9.43447 17.3027 -19.7821 -2.47472 -76.9191 9.86089
lowerback -2.28983 2.63357 -2.19157
upperback -2.9275 3.51748 1.54866
thorax -1.95597 1.80757 2.83027
lowerneck -17.3552 13.1824 2.30479
upperneck 20.0325 18.95 -5.32104
head 9.9531 8.31783 0.44852
rclavicle 1.52195e-014 1.03368e-014
rhumerus -36.8404 -17.7682 -75.0471
rradius 28.5979
rwrist -4.71396
rhand -15.7973 9.19994
rfingers 7.12502
rthumb 10.3957 -20.5231
lclavicle 1.52195e-014 1.03368e-014
lhumerus -31.4015 3.63826 87.1747
lradius 29.8388
lwrist -11.5254
lhand 1.2253 41.0959
lfingers 7.12502
lthumb 26.7635 69.2227
rfemur -13.958 -2.4966 23.4908
rtibia 37.7312
rfoot -28.1501 -16.2196
rtoes -7.37509
lfemur -14.6006 3.8825 -21.9508
ltibia 29.9497
lfoot -20.916 -12.7744
ltoes 2.86534
468
root 9.4362 17.3003 -19.783 -2.76822 -76.5104 10.1719
lowerback -2.25181 2.5915 -2.29115
upperback -2.94741 3.46193 1.55144
thorax -2.00054 1.78279 2.8864
lowerneck -17.059 13.3142 2.23823
upperneck 19.7494 19.1534 -5.44312
head 9.81432 8.41783 0.417762
rclavicle 3.91295e-014 2.46493e-014
rhumerus -36.8815 -17.9729 -74.798
rradius 28.5238
rwrist -4.88061
rhand -15.3 9.54419
rfingers 7.12502
rthumb 10.8754 -20.1542
lclavicle 3.91295e-014 2.46493e-014
lhumerus -31.2975 3.46455 87.2916
lradius 29.7526
lwrist -11.2428
lhand 1.02166 41.1346
lfingers 7.12502
lthumb 26.5686 69.291
rfemur -13.9999 -2.66126 23.4172
rtibia 37.7436
rfoot -28.0156 -16.5775
rtoes -7.98551
lfemur -14.6781 3.73642 -22.0705
ltibia 29.9798
lfoot -20.9647 -12.8739
ltoes 2.27566
469
root 9.44179 17.3002 -19.7873 -2.72145 -76.8752 10.533
lowerback -2.62319 2.80054 -2.45992
upperback -3.03435 3.74636 1.61093
thorax -1.91775 1.92814 3.05829
lowerneck -16.9431 13.3371 2.25199
upperneck 19.6397 19.2284 -5.67646
head 9.78653 8.43483 0.341352
rclavicle -1.73253e-014 -3.18055e-015
rhumerus -36.8928 -17.6721 -74.7943
rradius 28.5702
rwrist -4.83997
rhand -15.5923 9.69166
rfingers 7.12502
rthumb 10.5935 -20.0213
lclavicle -1.73253e-014 -3.18055e-015
lhumerus -31.2577 3.7574 87.3103
lradius 29.7364
lwrist -11.8511
lhand 1.3976 41.015
lfingers 7.12502
lthumb 26.9283 69.1164
rfemur -14.5497 -2.36913 23.3714
rtibia 37.76
rfoot -27.6495 -16.8097
rtoes -8.20449
lfemur -15.1474 3.87061 -22.1891
ltibia 30.0135
lfoot -21.0866 -12.4791
ltoes 1.23378
470
root 9.43504 17.2954 -19.7896 -2.75677 -76.6253 10.3713
lowerback -2.66864 2.76056 -2.53892
upperback -2.83273 3.69899 1.68196
thorax -1.69097 1.90228 3.18411
lowerneck -17.1471 13.3757 2.31454
upperneck 19.752 19.3206 -5.84289
head 9.89305 8.44727 0.313387
rclavicle 4.34562e-014 1.90833e-014
rhumerus -36.7035 -17.1498 -75.032
rradius 28.6923
rwrist -5.04045
rhand -15.9461 9.45422
rfingers 7.12502
rthumb 10.2521 -20.2759
lclavicle 4.34562e-014 1.90833e-014
lhumerus -31.0798 4.01909 87.2936
lradius 29.6498
lwrist -11.9235
lhand 1.09394 40.7285
lfingers 7.12502
lthumb 26.6378 68.8745
rfemur -14.2902 -2.42335 23.4144
rtibia 37.7688
rfoot -27.5981 -17.1663
rtoes -7.99577
lfemur -14.9287 3.88292 -22.1314
ltibia 30.0243
lfoot -21.1438 -12.9063
ltoes 1.63342
471
root 9.43086 17.2995 -19.7879 -2.2096 -76.2505 9.7425
lowerback -2.75703 2.72518 -2.31255
upperback -2.73247 3.65067 1.65635
thorax -1.51771 1.87024 3.03896
lowerneck -16.9432 13.4331 2.11516
upperneck 19.5357 19.3919 -5.69789
head 9.74486 8.50431 0.372992
rclavicle 3.87894e-014 5.56597e-015
rhumerus -36.6409 -17.0831 -75.1297
rradius 28.7129
rwrist -5.15719
rhand -15.9515 9.46083
rfingers 7.12502
rthumb 10.2469 -20.2696
lclavicle 3.87894e-014 5.56597e-015
lhumerus -30.9795 3.60337 87.472
lradius 29.5919
lwrist -10.8478
lhand -0.497102 40.401
lfingers 7.12502
lthumb 25.1142 68.7694
rfemur -14.1515 -2.5315 23.5236
rtibia 37.7739
rfoot -27.9726 -17.0579
rtoes -6.7882
lfemur -14.9056 3.76876 -21.9931
ltibia 30.0373
lfoot -20.9175 -13.5373
ltoes 2.87956
472
root 9.4327 17.3037 -19.7854 -1.74912 -76.0072 9.29457
lowerback -2.72658 2.80034 -2.13215
upperback -2.80495 3.74643 1.67998
thorax -1.60577 1.9166 2.95915
lowerneck -16.449 13.4323 1.78953
upperneck 19.2309 19.3935 -5.51946
head 9.49502 8.54001 0.423657
rclavicle -2.2854e-014 -2.38542e-015
rhumerus -36.8398 -17.1818 -74.9172
rradius 28.6207
rwrist -4.86804
rhand -16.1458 9.79959
rfingers 7.12502
rthumb 10.0595 -19.94
lclavicle -2.2854e-014 -2.38542e-015
lhumerus -31.1127 3.47531 87.7288
lradius 29.6559
lwrist -10.5159
lhand -0.996395 40.2679
lfingers 7.12502
lthumb 24.6357 68.7023
rfemur -14.175 -2.63333 23.6061
rtibia 37.7884
rfoot -28.1187 -17.0811
rtoes -6.42741
lfemur -14.9544 3.48254 -21.9296
ltibia 29.9958
lfoot -20.8551 -13.4297
ltoes 2.42615
473
root 9.42974 17.2988 -19.7855 -1.80734 -75.6994 9.06451
lowerback -2.47718 2.85345 -2.16333
upperback -2.76654 3.8166 1.77891
thorax -1.71969 1.95503 3.06592
lowerneck -16.1669 13.4561 1.72068
upperneck 19.0961 19.4271 -5.51358
head 9.39112 8.56997 0.413628
rclavicle 3.88313e-014 7.95139e-015
rhumerus -37.0141 -17.1343 -74.6561
rradius 28.65
rwrist -5.12718
rhand -15.9212 9.93708
rfingers 7.12502
rthumb 10.2762 -19.7919
lclavicle 3.88313e-014 7.95139e-015
lhumerus -31.1409 4.00231 87.8149
lradius 29.5989
lwrist -11.2977
lhand -0.260536 40.5098
lfingers 7.12502
lthumb 25.3408 68.8462
rfemur -13.8496 -2.75091 23.6659
rtibia 37.8384
rfoot -28.2116 -17.2961
rtoes -7.14437
lfemur -14.6079 3.4957 -21.8894
ltibia 29.9054
lfoot -21.0123 -13.4111
ltoes 1.15179
474
root 9.42647 17.3046 -19.7869 -1.74301 -75.3628 8.83874
lowerback -2.38155 2.91565 -2.0679
upperback -2.73831 3.8976 1.69721
thorax -1.73716 1.99321 2.92422
lowerneck -15.9061 13.5116 2.07568
upperneck 18.9674 19.4092 -5.53029
head 9.33641 8.60147 0.336865
rclavicle -8.18744e-015 7.95139e-015
rhumerus -37.2308 -17.6284 -74.4848
rradius 28.7767
rwrist -5.5756
rhand -15.0872 9.94659
rfingers 7.12502
rthumb 11.0807 -19.7409
lclavicle -8.18744e-015 7.95139e-015
lhumerus -31.0122 4.07622 87.7208
lradius 29.4628
lwrist -11.7015
lhand -0.108704 40.9452
lfingers 7.12502
lthumb 25.4862 69.2609
rfemur -13.6155 -2.64145 23.6814
rtibia 37.8751
rfoot -28.788 -16.9451
rtoes -4.88107
lfemur -14.4427 3.64564 -21.8349
ltibia 29.8461
lfoot -20.9765 -13.9675
ltoes 1.57435
475
root 9.42617 17.3118 -19.79 -1.71019 -75.1135 8.77914
lowerback -2.35797 2.96752 -1.95562
upperback -2.74536 3.96449 1.57075
thorax -1.74482 2.02349 2.73017
lowerneck -15.6941 13.5586 2.29312
upperneck 18.9149 19.389 -5.4091
head 9.28713 8.6323 0.32648
rclavicle 1.46604e-015 1.82882e-014
rhumerus -37.4237 -18.0517 -74.4769
rradius 28.8975
rwrist -5.53788
rhand -14.7983 10.046
rfingers 7.12502
rthumb 11.3593 -19.6263
lclavicle 1.46604e-015 1.82882e-014
lhumerus -30.8598 3.80299 87.647
lradius 29.3811
lwrist -11.5622
lhand -0.285032 41.4078
lfingers 7.12502
lthumb 25.3173 69.7475
rfemur -13.5613 -2.53564 23.6759
rtibia 37.8842
rfoot -29.0645 -16.8023
rtoes -3.01664
lfemur -14.4271 3.59885 -21.8124
ltibia 29.8157
lfoot -20.9491 -14.1743
ltoes 1.99336
476
root 9.4265 17.3008 -19.7925 -1.73444 -74.9546 8.77312
lowerback -2.35241 2.94498 -2.00109
upperback -2.71416 3.93571 1.61484
thorax -1.72037 2.01 2.80148
lowerneck -15.7099 13.6276 1.94443
upperneck 18.9999 19.4874 -5.02895
head 9.24353 8.69481 0.506797
rclavicle -2.91654e-014 -2.38542e-015
rhumerus -37.4038 -17.5801 -74.712
rradius 28.9865
rwrist -5.42148
rhand -15.0557 10.1323
rfingers 7.12502
rthumb 11.111 -19.5535
lclavicle -2.91654e-014 -2.38542e-015
lhumerus -30.7658 3.92212 87.662
lradius 29.357
lwrist -11.4245
lhand -0.174993 41.6259
lfingers 7.12502
lthumb 25.4227 69.9507
rfemur -13.5568 -2.68675 23.7432
rtibia 37.8834
rfoot -28.6176 -17.4207
rtoes -5.28446
lfemur -14.3905 3.60266 -21.8026
ltibia 29.8029
lfoot -21.0881 -14.0487
ltoes 1.32624
